<svg xmlns="http://www.w3.org/2000/svg" width="64" height="32" class="ipc-logo"><rect width="100%" height="100%" fill="#F5C518" rx="4"/><path d="M8 25h5V7H8zM23.673 7l-1.12 8.408-.695-4.573A126.174 126.174 0 0 0 21.278 7H15v18h4.242l.016-11.886L21.044 25h3.02l1.694-12.148L25.771 25H30V7h-6.327ZM32 25V7h7.805A3.185 3.185 0 0 1 43 10.177v11.646A3.185 3.185 0 0 1 39.805 25H32Zm5.832-14.76c-.198-.108-.577-.16-1.13-.16v11.811c.73 0 1.178-.13 1.346-.404.168-.27.254-1 .254-2.2v-6.98c0-.813-.03-1.333-.086-1.563a.736.736 0 0 0-.384-.504ZM52.43 11.507h.32c1.795 0 3.25 1.406 3.25 3.138v7.217C56 23.595 54.545 25 52.75 25h-.32a3.282 3.282 0 0 1-2.658-1.332l-.288 1.1H45V7h4.784v5.78a3.387 3.387 0 0 1 2.646-1.273Zm-1.024 8.777V16.02c0-.705-.046-1.167-.14-1.38-.094-.213-.47-.35-.734-.35s-.671.111-.75.299v7.219c.09.206.478.32.75.32.271 0 .666-.11.75-.32.082-.209.124-.719.124-1.523Z"/></svg>